<svg width="1600" height="980" viewBox="0 0 1600 980" fill="none" xmlns="http://www.w3.org/2000/svg">
  <rect width="1600" height="980" rx="28" fill="#0A0E0C"/>
  <rect x="22" y="22" width="1556" height="936" rx="24" fill="#101614"/>

  <rect x="54" y="54" width="270" height="872" rx="24" fill="#141B19" stroke="#28312E"/>
  <text x="92" y="118" fill="#C1FF54" font-family="Arial, Helvetica, sans-serif" font-size="24">DefendOS</text>
  <text x="92" y="154" fill="#F0EEE5" font-family="Arial, Helvetica, sans-serif" font-size="38" font-weight="700">Ops Console</text>
  <text x="92" y="196" fill="#98A79F" font-family="Arial, Helvetica, sans-serif" font-size="22">Global surveillance for one VPS.</text>

  <rect x="84" y="256" width="210" height="62" rx="16" fill="#1A2520"/>
  <rect x="84" y="334" width="210" height="62" rx="16" fill="#1A2520"/>
  <rect x="84" y="412" width="210" height="62" rx="16" fill="#1A2520"/>
  <rect x="84" y="490" width="210" height="62" rx="16" fill="#1A2520"/>
  <text x="112" y="295" fill="#F0EEE5" font-family="Arial, Helvetica, sans-serif" font-size="24">Overview</text>
  <text x="112" y="373" fill="#F0EEE5" font-family="Arial, Helvetica, sans-serif" font-size="24">Setup</text>
  <text x="112" y="451" fill="#F0EEE5" font-family="Arial, Helvetica, sans-serif" font-size="24">Operations</text>
  <text x="112" y="529" fill="#F0EEE5" font-family="Arial, Helvetica, sans-serif" font-size="24">Runs</text>

  <rect x="366" y="54" width="1180" height="196" rx="24" fill="#F2EDDE"/>
  <text x="410" y="120" fill="#17150E" font-family="Arial, Helvetica, sans-serif" font-size="22">Live posture</text>
  <text x="410" y="178" fill="#17150E" font-family="Arial, Helvetica, sans-serif" font-size="56" font-weight="700">Machine posture and incident triage</text>

  <rect x="1138" y="96" width="184" height="48" rx="24" fill="#E8E1CF"/>
  <text x="1176" y="127" fill="#6A8300" font-family="Arial, Helvetica, sans-serif" font-size="20">SETUP READY</text>
  <rect x="1340" y="96" width="158" height="48" rx="24" fill="#E8E1CF"/>
  <text x="1380" y="127" fill="#6A8300" font-family="Arial, Helvetica, sans-serif" font-size="20">LOCAL ONLY</text>

  <rect x="366" y="282" width="734" height="294" rx="24" fill="#141B19" stroke="#28312E"/>
  <text x="404" y="336" fill="#C1FF54" font-family="Arial, Helvetica, sans-serif" font-size="20">Overview</text>
  <text x="404" y="388" fill="#F0EEE5" font-family="Arial, Helvetica, sans-serif" font-size="36" font-weight="700">Whole-system health in one place</text>
  <rect x="404" y="428" width="300" height="46" rx="20" fill="#26322C"/>
  <text x="436" y="458" fill="#FFBDB3" font-family="Arial, Helvetica, sans-serif" font-size="20">CRITICAL - root SSH enabled</text>
  <rect x="404" y="504" width="304" height="32" rx="16" fill="#1C2622"/>
  <rect x="404" y="550" width="250" height="32" rx="16" fill="#1C2622"/>

  <rect x="1128" y="282" width="418" height="294" rx="24" fill="#141B19" stroke="#28312E"/>
  <text x="1166" y="336" fill="#C1FF54" font-family="Arial, Helvetica, sans-serif" font-size="20">Readiness</text>
  <rect x="1166" y="372" width="160" height="92" rx="20" fill="#1A2520"/>
  <rect x="1342" y="372" width="160" height="92" rx="20" fill="#1A2520"/>
  <rect x="1166" y="480" width="160" height="92" rx="20" fill="#1A2520"/>
  <rect x="1342" y="480" width="160" height="92" rx="20" fill="#1A2520"/>
  <text x="1200" y="422" fill="#F0EEE5" font-family="Arial, Helvetica, sans-serif" font-size="24">Codex</text>
  <text x="1378" y="422" fill="#F0EEE5" font-family="Arial, Helvetica, sans-serif" font-size="24">Outbound</text>
  <text x="1204" y="530" fill="#F0EEE5" font-family="Arial, Helvetica, sans-serif" font-size="24">Inbox</text>
  <text x="1370" y="530" fill="#F0EEE5" font-family="Arial, Helvetica, sans-serif" font-size="24">Alerts</text>

  <rect x="366" y="608" width="560" height="318" rx="24" fill="#141B19" stroke="#28312E"/>
  <text x="404" y="662" fill="#C1FF54" font-family="Arial, Helvetica, sans-serif" font-size="20">Setup wizard</text>
  <text x="404" y="710" fill="#F0EEE5" font-family="Arial, Helvetica, sans-serif" font-size="34" font-weight="700">Dashboard-guided configuration</text>
  <rect x="404" y="752" width="220" height="52" rx="16" fill="#1A2520"/>
  <rect x="646" y="752" width="220" height="52" rx="16" fill="#1A2520"/>
  <rect x="404" y="824" width="462" height="52" rx="16" fill="#1A2520"/>
  <text x="434" y="785" fill="#F0EEE5" font-family="Arial, Helvetica, sans-serif" font-size="22">Alert email</text>
  <text x="676" y="785" fill="#F0EEE5" font-family="Arial, Helvetica, sans-serif" font-size="22">Inbox provider</text>
  <text x="434" y="857" fill="#F0EEE5" font-family="Arial, Helvetica, sans-serif" font-size="22">Save setup without editing files by hand</text>

  <rect x="958" y="608" width="588" height="318" rx="24" fill="#141B19" stroke="#28312E"/>
  <text x="996" y="662" fill="#C1FF54" font-family="Arial, Helvetica, sans-serif" font-size="20">Recent runs</text>
  <rect x="996" y="702" width="510" height="58" rx="18" fill="#1A2520"/>
  <rect x="996" y="776" width="510" height="58" rx="18" fill="#1A2520"/>
  <rect x="996" y="850" width="510" height="58" rx="18" fill="#1A2520"/>
  <text x="1028" y="738" fill="#F0EEE5" font-family="Arial, Helvetica, sans-serif" font-size="22">Scheduled healthcheck - critical</text>
  <text x="1028" y="812" fill="#F0EEE5" font-family="Arial, Helvetica, sans-serif" font-size="22">Email-triggered run - medium</text>
  <text x="1028" y="886" fill="#F0EEE5" font-family="Arial, Helvetica, sans-serif" font-size="22">Manual investigation - info</text>
</svg>
